<mxfile host="Electron" agent="Mozilla/5.0 (Windows NT 10.0; Win64; x64) AppleWebKit/537.36 (KHTML, like Gecko) draw.io/25.0.2 Chrome/128.0.6613.186 Electron/32.2.5 Safari/537.36" version="25.0.2">
  <diagram name="Page-1" id="Dl4oVYlqzYpcefwEGg33">
    <mxGraphModel dx="819" dy="478" grid="1" gridSize="10" guides="1" tooltips="1" connect="1" arrows="1" fold="1" page="1" pageScale="1" pageWidth="850" pageHeight="1100" math="0" shadow="0">
      <root>
        <mxCell id="0" />
        <mxCell id="1" parent="0" />
        <mxCell id="ujUZu0xUHMEWgU3puu9X-23" value="FLOps Project" style="swimlane;fontStyle=0;childLayout=stackLayout;horizontal=1;startSize=26;fillColor=none;horizontalStack=0;resizeParent=1;resizeParentMax=0;resizeLast=0;collapsible=1;marginBottom=0;whiteSpace=wrap;html=1;fontFamily=CMU Sans Serif;" vertex="1" parent="1">
          <mxGeometry x="285" y="220" width="140" height="104" as="geometry" />
        </mxCell>
        <mxCell id="ujUZu0xUHMEWgU3puu9X-31" value="supportedPlatforms" style="text;strokeColor=none;fillColor=none;align=left;verticalAlign=top;spacingLeft=4;spacingRight=4;overflow=hidden;rotatable=0;points=[[0,0.5],[1,0.5]];portConstraint=eastwest;whiteSpace=wrap;html=1;fontFamily=CMU Sans Serif;" vertex="1" parent="ujUZu0xUHMEWgU3puu9X-23">
          <mxGeometry y="26" width="140" height="26" as="geometry" />
        </mxCell>
        <mxCell id="ujUZu0xUHMEWgU3puu9X-32" value="mlModelFlavor" style="text;strokeColor=none;fillColor=none;align=left;verticalAlign=top;spacingLeft=4;spacingRight=4;overflow=hidden;rotatable=0;points=[[0,0.5],[1,0.5]];portConstraint=eastwest;whiteSpace=wrap;html=1;fontFamily=CMU Sans Serif;" vertex="1" parent="ujUZu0xUHMEWgU3puu9X-23">
          <mxGeometry y="52" width="140" height="26" as="geometry" />
        </mxCell>
        <mxCell id="ujUZu0xUHMEWgU3puu9X-33" value="postTrainingSteps" style="text;strokeColor=none;fillColor=none;align=left;verticalAlign=top;spacingLeft=4;spacingRight=4;overflow=hidden;rotatable=0;points=[[0,0.5],[1,0.5]];portConstraint=eastwest;whiteSpace=wrap;html=1;fontFamily=CMU Sans Serif;" vertex="1" parent="ujUZu0xUHMEWgU3puu9X-23">
          <mxGeometry y="78" width="140" height="26" as="geometry" />
        </mxCell>
        <mxCell id="ujUZu0xUHMEWgU3puu9X-42" value="ResourceConstraints" style="swimlane;fontStyle=0;childLayout=stackLayout;horizontal=1;startSize=26;fillColor=none;horizontalStack=0;resizeParent=1;resizeParentMax=0;resizeLast=0;collapsible=1;marginBottom=0;whiteSpace=wrap;html=1;fontFamily=CMU Sans Serif;" vertex="1" parent="1">
          <mxGeometry x="470" y="220" width="140" height="104" as="geometry" />
        </mxCell>
        <mxCell id="ujUZu0xUHMEWgU3puu9X-43" value="memory" style="text;strokeColor=none;fillColor=none;align=left;verticalAlign=top;spacingLeft=4;spacingRight=4;overflow=hidden;rotatable=0;points=[[0,0.5],[1,0.5]];portConstraint=eastwest;whiteSpace=wrap;html=1;fontFamily=CMU Sans Serif;" vertex="1" parent="ujUZu0xUHMEWgU3puu9X-42">
          <mxGeometry y="26" width="140" height="26" as="geometry" />
        </mxCell>
        <mxCell id="ujUZu0xUHMEWgU3puu9X-44" value="vcpus" style="text;strokeColor=none;fillColor=none;align=left;verticalAlign=top;spacingLeft=4;spacingRight=4;overflow=hidden;rotatable=0;points=[[0,0.5],[1,0.5]];portConstraint=eastwest;whiteSpace=wrap;html=1;fontFamily=CMU Sans Serif;" vertex="1" parent="ujUZu0xUHMEWgU3puu9X-42">
          <mxGeometry y="52" width="140" height="26" as="geometry" />
        </mxCell>
        <mxCell id="ujUZu0xUHMEWgU3puu9X-59" value="storage" style="text;strokeColor=none;fillColor=none;align=left;verticalAlign=top;spacingLeft=4;spacingRight=4;overflow=hidden;rotatable=0;points=[[0,0.5],[1,0.5]];portConstraint=eastwest;whiteSpace=wrap;html=1;fontFamily=CMU Sans Serif;" vertex="1" parent="ujUZu0xUHMEWgU3puu9X-42">
          <mxGeometry y="78" width="140" height="26" as="geometry" />
        </mxCell>
        <mxCell id="ujUZu0xUHMEWgU3puu9X-48" value="TrainingConfiguration" style="swimlane;fontStyle=0;childLayout=stackLayout;horizontal=1;startSize=26;fillColor=none;horizontalStack=0;resizeParent=1;resizeParentMax=0;resizeLast=0;collapsible=1;marginBottom=0;whiteSpace=wrap;html=1;fontFamily=CMU Sans Serif;" vertex="1" parent="1">
          <mxGeometry x="100" y="220" width="140" height="156" as="geometry" />
        </mxCell>
        <mxCell id="ujUZu0xUHMEWgU3puu9X-49" value="mode" style="text;strokeColor=none;fillColor=none;align=left;verticalAlign=top;spacingLeft=4;spacingRight=4;overflow=hidden;rotatable=0;points=[[0,0.5],[1,0.5]];portConstraint=eastwest;whiteSpace=wrap;html=1;fontFamily=CMU Sans Serif;" vertex="1" parent="ujUZu0xUHMEWgU3puu9X-48">
          <mxGeometry y="26" width="140" height="26" as="geometry" />
        </mxCell>
        <mxCell id="ujUZu0xUHMEWgU3puu9X-63" value="dataTags" style="text;strokeColor=none;fillColor=none;align=left;verticalAlign=top;spacingLeft=4;spacingRight=4;overflow=hidden;rotatable=0;points=[[0,0.5],[1,0.5]];portConstraint=eastwest;whiteSpace=wrap;html=1;fontFamily=CMU Sans Serif;" vertex="1" parent="ujUZu0xUHMEWgU3puu9X-48">
          <mxGeometry y="52" width="140" height="26" as="geometry" />
        </mxCell>
        <mxCell id="ujUZu0xUHMEWgU3puu9X-64" value="trainingCycles" style="text;strokeColor=none;fillColor=none;align=left;verticalAlign=top;spacingLeft=4;spacingRight=4;overflow=hidden;rotatable=0;points=[[0,0.5],[1,0.5]];portConstraint=eastwest;whiteSpace=wrap;html=1;fontFamily=CMU Sans Serif;" vertex="1" parent="ujUZu0xUHMEWgU3puu9X-48">
          <mxGeometry y="78" width="140" height="26" as="geometry" />
        </mxCell>
        <mxCell id="ujUZu0xUHMEWgU3puu9X-65" value="trainingRounds" style="text;strokeColor=none;fillColor=none;align=left;verticalAlign=top;spacingLeft=4;spacingRight=4;overflow=hidden;rotatable=0;points=[[0,0.5],[1,0.5]];portConstraint=eastwest;whiteSpace=wrap;html=1;fontFamily=CMU Sans Serif;" vertex="1" parent="ujUZu0xUHMEWgU3puu9X-48">
          <mxGeometry y="104" width="140" height="26" as="geometry" />
        </mxCell>
        <mxCell id="ujUZu0xUHMEWgU3puu9X-66" value="numberOfLearners" style="text;strokeColor=none;fillColor=none;align=left;verticalAlign=top;spacingLeft=4;spacingRight=4;overflow=hidden;rotatable=0;points=[[0,0.5],[1,0.5]];portConstraint=eastwest;whiteSpace=wrap;html=1;fontFamily=CMU Sans Serif;" vertex="1" parent="ujUZu0xUHMEWgU3puu9X-48">
          <mxGeometry y="130" width="140" height="26" as="geometry" />
        </mxCell>
        <mxCell id="ujUZu0xUHMEWgU3puu9X-57" style="edgeStyle=orthogonalEdgeStyle;rounded=0;orthogonalLoop=1;jettySize=auto;html=1;endArrow=none;endFill=0;" edge="1" parent="1">
          <mxGeometry relative="1" as="geometry">
            <mxPoint x="470" y="232.9999999999999" as="sourcePoint" />
            <mxPoint x="425" y="233" as="targetPoint" />
          </mxGeometry>
        </mxCell>
        <mxCell id="ujUZu0xUHMEWgU3puu9X-69" value="1..*" style="edgeLabel;html=1;align=center;verticalAlign=middle;resizable=0;points=[];" vertex="1" connectable="0" parent="ujUZu0xUHMEWgU3puu9X-57">
          <mxGeometry x="0.2581" y="1" relative="1" as="geometry">
            <mxPoint x="-6" y="9" as="offset" />
          </mxGeometry>
        </mxCell>
        <mxCell id="ujUZu0xUHMEWgU3puu9X-67" style="edgeStyle=orthogonalEdgeStyle;rounded=0;orthogonalLoop=1;jettySize=auto;html=1;entryX=1.001;entryY=0.095;entryDx=0;entryDy=0;entryPerimeter=0;exitX=0;exitY=0.14;exitDx=0;exitDy=0;exitPerimeter=0;endArrow=none;endFill=0;" edge="1" parent="1" source="ujUZu0xUHMEWgU3puu9X-23" target="ujUZu0xUHMEWgU3puu9X-48">
          <mxGeometry relative="1" as="geometry" />
        </mxCell>
        <mxCell id="ujUZu0xUHMEWgU3puu9X-68" value="1..*" style="edgeLabel;html=1;align=center;verticalAlign=middle;resizable=0;points=[];" vertex="1" connectable="0" parent="ujUZu0xUHMEWgU3puu9X-67">
          <mxGeometry x="-0.5375" relative="1" as="geometry">
            <mxPoint x="-2" y="10" as="offset" />
          </mxGeometry>
        </mxCell>
      </root>
    </mxGraphModel>
  </diagram>
</mxfile>
